<svg width="12" height="12" viewBox="0 0 12 12" fill="none" xmlns="http://www.w3.org/2000/svg">
<path fill-rule="evenodd" clip-rule="evenodd" d="M3.2 12C3.12636 12 3.05513 12 2.98621 11.9999C2.85427 11.9998 2.73076 11.9995 2.61482 11.9985C2.5167 11.9976 2.424 11.9963 2.33621 11.9942C2.19029 11.9908 2.05792 11.9853 1.93674 11.9766C1.84749 11.9702 1.76431 11.962 1.68625 11.9516C1.56786 11.9358 1.46124 11.9148 1.36309 11.887C1.33783 11.8798 1.31314 11.8722 1.28896 11.8642C1.21961 11.841 1.15441 11.8138 1.09202 11.782C1.05461 11.763 1.01789 11.7428 0.981913 11.7215C0.883013 11.663 0.789693 11.5963 0.702848 11.5223C0.621936 11.4534 0.546645 11.3781 0.477699 11.2972C0.403697 11.2103 0.337005 11.117 0.278517 11.0181C0.25724 10.9821 0.237049 10.9454 0.217987 10.908C0.186197 10.8456 0.159043 10.7804 0.13585 10.711C0.127759 10.6869 0.12015 10.6622 0.112995 10.6369C0.0851799 10.5388 0.0642118 10.4321 0.0484052 10.3137C0.0379829 10.2357 0.0298046 10.1525 0.0233872 10.0633C0.014673 9.94208 0.00920578 9.80971 0.00577566 9.66379C0.00371207 9.576 0.00238578 9.4833 0.00153336 9.38518C0.000526163 9.26924 0.000180549 9.14573 6.19538e-05 9.01379C-4.29281e-10 8.94487 0 8.87364 0 8.8V6.94H1.3L1.30104 10.0963L1.36871 10.2987C1.37261 10.3103 1.37529 10.3158 1.3763 10.3178C1.38297 10.3309 1.39004 10.3438 1.39749 10.3563L1.48897 10.511L1.64366 10.6025C1.65624 10.61 1.6691 10.617 1.68221 10.6237C1.68419 10.6247 1.68967 10.6274 1.70133 10.6313L1.90366 10.699L5.06 10.7V12H3.2ZM0 5.06H1.3L1.30104 1.90366L1.36871 1.70133C1.37261 1.68967 1.37529 1.68419 1.3763 1.68221C1.38297 1.6691 1.39004 1.65624 1.39749 1.64366L1.48897 1.48897L1.64366 1.39749C1.65624 1.39004 1.6691 1.38297 1.68221 1.3763C1.68419 1.37529 1.68967 1.37261 1.70133 1.36871L1.90366 1.30104L5.06 1.3V0H3.2C3.12636 0 3.05513 1.01863e-10 2.98621 6.19543e-05C2.85427 0.000180549 2.73076 0.000526163 2.61482 0.00153336C2.5167 0.00238578 2.424 0.00371207 2.33621 0.00577566C2.19029 0.00920578 2.05792 0.014673 1.93674 0.0233872C1.84749 0.0298046 1.76431 0.0379829 1.68625 0.0484052C1.56786 0.0642118 1.46124 0.0851799 1.36309 0.112995C1.33783 0.12015 1.31314 0.127759 1.28896 0.13585C1.21961 0.159043 1.15441 0.186197 1.09202 0.217987C1.05461 0.237049 1.01789 0.25724 0.981913 0.278517C0.883013 0.337005 0.789693 0.403697 0.702848 0.477699C0.621936 0.546645 0.546645 0.621936 0.477699 0.702848C0.403697 0.789693 0.337005 0.883013 0.278517 0.981913C0.25724 1.01789 0.237049 1.05461 0.217987 1.09202C0.186197 1.15441 0.159043 1.21961 0.13585 1.28896C0.127759 1.31314 0.12015 1.33783 0.112995 1.36309C0.0851799 1.46124 0.0642118 1.56786 0.0484053 1.68625C0.0379829 1.76431 0.0298046 1.84749 0.0233872 1.93674C0.014673 2.05792 0.00920579 2.19029 0.00577567 2.33621C0.00371207 2.424 0.00238578 2.5167 0.00153336 2.61482C0.000526163 2.73076 0.000180549 2.85427 6.19542e-05 2.98621C-1.01863e-10 3.05513 0 3.12636 0 3.2V5.06ZM6.94 0H8.8C8.87364 0 8.94487 0 9.01379 6.19542e-05C9.14573 0.000180549 9.26924 0.000526163 9.38518 0.00153336C9.4833 0.00238578 9.576 0.00371207 9.66379 0.00577566C9.80971 0.00920578 9.94208 0.014673 10.0633 0.0233872C10.1525 0.0298046 10.2357 0.0379829 10.3137 0.0484052C10.4321 0.0642118 10.5388 0.0851799 10.6369 0.112995C10.6622 0.12015 10.6869 0.127759 10.711 0.13585C10.7804 0.159043 10.8456 0.186197 10.908 0.217987C10.9454 0.237049 10.9821 0.25724 11.0181 0.278517C11.117 0.337005 11.2103 0.403697 11.2972 0.477699C11.3781 0.546645 11.4534 0.621936 11.5223 0.702848C11.5963 0.789693 11.663 0.883013 11.7215 0.981913C11.7428 1.01789 11.763 1.05461 11.782 1.09202C11.8138 1.15441 11.841 1.21961 11.8642 1.28896C11.8722 1.31314 11.8798 1.33784 11.887 1.36309C11.9148 1.46124 11.9358 1.56786 11.9516 1.68625C11.962 1.76431 11.9702 1.84749 11.9766 1.93674C11.9853 2.05792 11.9908 2.19029 11.9942 2.33621C11.9963 2.424 11.9976 2.5167 11.9985 2.61482C11.9995 2.73076 11.9998 2.85427 11.9999 2.98621C12 3.05513 12 3.12636 12 3.2V5.06H10.7L10.699 1.90366L10.6313 1.70133C10.6274 1.68967 10.6247 1.68419 10.6237 1.68221C10.617 1.6691 10.61 1.65624 10.6025 1.64366L10.511 1.48897L10.3563 1.39749C10.3438 1.39004 10.3309 1.38297 10.3178 1.3763C10.3158 1.37529 10.3103 1.37261 10.2987 1.36871L10.0963 1.30104L6.94 1.3V0ZM12 6.94V8.8C12 8.87364 12 8.94487 11.9999 9.01379C11.9998 9.14573 11.9995 9.26924 11.9985 9.38518C11.9976 9.4833 11.9963 9.576 11.9942 9.66379C11.9908 9.80971 11.9853 9.94208 11.9766 10.0633C11.9702 10.1525 11.962 10.2357 11.9516 10.3137C11.9358 10.4321 11.9148 10.5388 11.887 10.6369C11.8798 10.6622 11.8722 10.6869 11.8642 10.711C11.841 10.7804 11.8138 10.8456 11.782 10.908C11.763 10.9454 11.7428 10.9821 11.7215 11.0181C11.663 11.117 11.5963 11.2103 11.5223 11.2972C11.4534 11.3781 11.3781 11.4534 11.2972 11.5223C11.2103 11.5963 11.117 11.663 11.0181 11.7215C10.9821 11.7428 10.9454 11.763 10.908 11.782C10.8456 11.8138 10.7804 11.841 10.711 11.8642C10.6869 11.8722 10.6622 11.8798 10.6369 11.887C10.5388 11.9148 10.4321 11.9358 10.3137 11.9516C10.2357 11.962 10.1525 11.9702 10.0633 11.9766C9.94208 11.9853 9.80971 11.9908 9.66379 11.9942C9.576 11.9963 9.4833 11.9976 9.38518 11.9985C9.26924 11.9995 9.14573 11.9998 9.01379 11.9999C8.94487 12 8.87364 12 8.8 12H6.94V10.7L10.0963 10.699L10.2987 10.6313C10.3103 10.6274 10.3158 10.6247 10.3178 10.6237C10.3309 10.617 10.3438 10.61 10.3563 10.6025L10.511 10.511L10.6025 10.3563C10.61 10.3438 10.617 10.3309 10.6237 10.3178C10.6247 10.3158 10.6274 10.3103 10.6313 10.2987L10.699 10.0963L10.7 6.94H12Z" fill="#737373"/>
</svg>
