<svg width="163" height="24" viewBox="0 0 163 24" fill="none" xmlns="http://www.w3.org/2000/svg">
<path d="M0 8.192C0 5.32453 0 3.8908 0.558047 2.79557C1.04892 1.83218 1.83218 1.04892 2.79557 0.558047C3.8908 0 5.32453 0 8.192 0H12H15.808C18.6755 0 20.1092 0 21.2044 0.558047C22.1678 1.04892 22.9511 1.83218 23.442 2.79557C24 3.8908 24 5.32453 24 8.192V15.808C24 18.6755 24 20.1092 23.442 21.2044C22.9511 22.1678 22.1678 22.9511 21.2044 23.442C20.1092 24 18.6755 24 15.808 24H12H8.192C5.32453 24 3.8908 24 2.79557 23.442C1.83218 22.9511 1.04892 22.1678 0.558047 21.2044C0 20.1092 0 18.6755 0 15.808V8.192Z" fill="#C4C4C4"/>
<path d="M23.442 21.2044C24 20.1092 24 18.6755 24 15.808H12V24H15.808C18.6755 24 20.1092 24 21.2044 23.442C22.1678 22.9511 22.9511 22.1678 23.442 21.2044Z" fill="#0ACF83"/>
<path d="M2.79557 23.442C3.8908 24 5.32453 24 8.192 24H12V15.808H0C0 18.6755 0 20.1092 0.558047 21.2044C1.04892 22.1678 1.83218 22.9511 2.79557 23.442Z" fill="#0ACF83"/>
<path d="M24 15.808V8.192H12V15.808H24Z" fill="#1ABCFE"/>
<path d="M0 8.192V15.808H12V8.192H0Z" fill="#A259FF"/>
<path d="M21.2044 0.558047C20.1092 0 18.6755 0 15.808 0H12V8.192H24C24 5.32453 24 3.8908 23.442 2.79557C22.9511 1.83218 22.1678 1.04892 21.2044 0.558047Z" fill="#FF7262"/>
<path d="M2.79557 0.558047C3.8908 0 5.32453 0 8.192 0H12V8.192H0C0 5.32453 0 3.8908 0.558047 2.79557C1.04892 1.83218 1.83218 1.04892 2.79557 0.558047Z" fill="#F24E1E"/>
<path d="M37.4382 19V5.90909H45.5561V7.60938H39.4134V11.598H44.9744V13.2919H39.4134V19H37.4382ZM47.8317 19V9.18182H49.7429V19H47.8317ZM48.7969 7.6669C48.4645 7.6669 48.179 7.55611 47.9403 7.33452C47.706 7.10866 47.5888 6.8402 47.5888 6.52912C47.5888 6.21378 47.706 5.94531 47.9403 5.72372C48.179 5.49787 48.4645 5.38494 48.7969 5.38494C49.1293 5.38494 49.4126 5.49787 49.647 5.72372C49.8857 5.94531 50.005 6.21378 50.005 6.52912C50.005 6.8402 49.8857 7.10866 49.647 7.33452C49.4126 7.55611 49.1293 7.6669 48.7969 7.6669ZM56.4306 22.8864C55.6507 22.8864 54.9796 22.7841 54.4171 22.5795C53.8588 22.375 53.4029 22.1044 53.0492 21.7678C52.6955 21.4311 52.4313 21.0625 52.2566 20.6619L53.8993 19.9844C54.0144 20.1719 54.1678 20.37 54.3596 20.5788C54.5556 20.7919 54.8198 20.973 55.1522 21.1222C55.4888 21.2713 55.9213 21.3459 56.4498 21.3459C57.1742 21.3459 57.7729 21.169 58.2459 20.8153C58.7189 20.4659 58.9554 19.9077 58.9554 19.1406V17.2102H58.834C58.7189 17.419 58.5527 17.6513 58.3354 17.907C58.1223 18.1626 57.8283 18.3842 57.4533 18.5717C57.0783 18.7592 56.5904 18.853 55.9895 18.853C55.214 18.853 54.5151 18.6719 53.8929 18.3097C53.275 17.9432 52.785 17.4041 52.4228 16.6925C52.0648 15.9766 51.8858 15.0966 51.8858 14.0526C51.8858 13.0085 52.0627 12.1136 52.4164 11.3679C52.7743 10.6222 53.2644 10.0511 53.8865 9.65483C54.5087 9.25426 55.214 9.05398 56.0023 9.05398C56.6117 9.05398 57.1039 9.15625 57.4789 9.3608C57.8539 9.56108 58.1458 9.79545 58.3546 10.0639C58.5676 10.3324 58.7317 10.5689 58.8468 10.7734H58.9874V9.18182H60.8603V19.2173C60.8603 20.0611 60.6642 20.7536 60.2722 21.2947C59.8801 21.8359 59.3496 22.2365 58.6806 22.4964C58.0158 22.7564 57.2658 22.8864 56.4306 22.8864ZM56.4114 17.2678C56.9611 17.2678 57.4256 17.1399 57.8049 16.8842C58.1884 16.6243 58.4782 16.2536 58.6742 15.772C58.8745 15.2862 58.9746 14.7045 58.9746 14.027C58.9746 13.3665 58.8766 12.7848 58.6806 12.282C58.4846 11.7791 58.1969 11.3871 57.8176 11.1058C57.4384 10.8203 56.9696 10.6776 56.4114 10.6776C55.8361 10.6776 55.3567 10.8267 54.9732 11.125C54.5897 11.419 54.2999 11.8196 54.1039 12.3267C53.9121 12.8338 53.8162 13.4006 53.8162 14.027C53.8162 14.6705 53.9142 15.2351 54.1103 15.7209C54.3063 16.2067 54.5961 16.5859 54.9796 16.8587C55.3674 17.1314 55.8446 17.2678 56.4114 17.2678ZM63.4235 19V9.18182H65.258V10.7798H65.3794C65.584 10.2386 65.9185 9.81676 66.383 9.5142C66.8475 9.20739 67.4036 9.05398 68.0513 9.05398C68.7076 9.05398 69.2573 9.20739 69.7005 9.5142C70.1479 9.82102 70.4782 10.2429 70.6912 10.7798H70.7935C71.0279 10.2557 71.4007 9.83807 71.9121 9.52699C72.4235 9.21165 73.0328 9.05398 73.7402 9.05398C74.6309 9.05398 75.3574 9.3331 75.9199 9.89134C76.4867 10.4496 76.7701 11.2912 76.7701 12.4162V19H74.8588V12.5952C74.8588 11.9304 74.6777 11.4489 74.3155 11.1506C73.9533 10.8523 73.5208 10.7031 73.0179 10.7031C72.3958 10.7031 71.9121 10.8949 71.5669 11.2784C71.2218 11.6577 71.0492 12.1456 71.0492 12.7422V19H69.1444V12.4737C69.1444 11.9411 68.9782 11.5128 68.6458 11.1889C68.3134 10.8651 67.8809 10.7031 67.3482 10.7031C66.986 10.7031 66.6515 10.799 66.3446 10.9908C66.0421 11.1783 65.7971 11.4403 65.6096 11.777C65.4263 12.1136 65.3347 12.5036 65.3347 12.9467V19H63.4235ZM82.1889 19.2173C81.5668 19.2173 81.0043 19.1023 80.5014 18.8722C79.9986 18.6378 79.6001 18.299 79.3061 17.8558C79.0163 17.4126 78.8714 16.8693 78.8714 16.2259C78.8714 15.6719 78.978 15.2159 79.1911 14.858C79.4041 14.5 79.6918 14.2166 80.054 14.0078C80.4162 13.799 80.821 13.6413 81.2685 13.5348C81.7159 13.4283 82.1719 13.3473 82.6364 13.2919C83.2244 13.2237 83.7017 13.1683 84.0682 13.1257C84.4347 13.0788 84.701 13.0043 84.8672 12.902C85.0334 12.7997 85.1165 12.6335 85.1165 12.4034V12.3587C85.1165 11.8004 84.9588 11.3679 84.6435 11.0611C84.3324 10.7543 83.8679 10.6009 83.25 10.6009C82.6065 10.6009 82.0994 10.7436 81.7287 11.0291C81.3622 11.3104 81.1087 11.6236 80.968 11.9688L79.1719 11.5597C79.3849 10.9631 79.696 10.4815 80.1051 10.1151C80.5185 9.74432 80.9936 9.47585 81.5305 9.30966C82.0675 9.1392 82.6321 9.05398 83.2244 9.05398C83.6165 9.05398 84.032 9.10085 84.4709 9.1946C84.9141 9.28409 85.3274 9.45028 85.7109 9.69318C86.0987 9.93608 86.4162 10.2834 86.6634 10.7351C86.9105 11.1825 87.0341 11.7642 87.0341 12.4801V19H85.1676V17.6577H85.0909C84.9673 17.9048 84.782 18.1477 84.5348 18.3864C84.2876 18.625 83.9702 18.8232 83.5824 18.9808C83.1946 19.1385 82.7301 19.2173 82.1889 19.2173ZM82.6044 17.6832C83.1328 17.6832 83.5845 17.5788 83.9595 17.37C84.3388 17.1612 84.6264 16.8885 84.8224 16.5518C85.0227 16.2109 85.1229 15.8466 85.1229 15.4588V14.1932C85.0547 14.2614 84.9226 14.3253 84.7266 14.3849C84.5348 14.4403 84.3153 14.4893 84.0682 14.532C83.821 14.5703 83.5803 14.6065 83.3459 14.6406C83.1115 14.6705 82.9155 14.696 82.7578 14.7173C82.3871 14.7642 82.0483 14.843 81.7415 14.9538C81.4389 15.0646 81.196 15.2244 81.0128 15.4332C80.8338 15.6378 80.7443 15.9105 80.7443 16.2514C80.7443 16.7244 80.919 17.0824 81.2685 17.3253C81.6179 17.5639 82.0632 17.6832 82.6044 17.6832ZM101.637 9.34801C101.569 8.7429 101.287 8.27415 100.793 7.94176C100.299 7.60511 99.6765 7.43679 98.9265 7.43679C98.3896 7.43679 97.9251 7.52202 97.533 7.69247C97.141 7.85866 96.8363 8.08878 96.619 8.38281C96.4059 8.67258 96.2994 9.00284 96.2994 9.37358C96.2994 9.68466 96.3718 9.95312 96.5167 10.179C96.6658 10.4048 96.8597 10.5945 97.0984 10.7479C97.3413 10.897 97.6012 11.0227 97.8782 11.125C98.1552 11.223 98.4215 11.304 98.6772 11.3679L99.9556 11.7003C100.373 11.8026 100.801 11.9411 101.24 12.1158C101.679 12.2905 102.086 12.5206 102.461 12.8061C102.836 13.0916 103.139 13.4453 103.369 13.8672C103.603 14.2891 103.721 14.794 103.721 15.3821C103.721 16.1236 103.529 16.782 103.145 17.3572C102.766 17.9325 102.214 18.3864 101.49 18.7188C100.77 19.0511 99.8981 19.2173 98.8754 19.2173C97.8952 19.2173 97.0472 19.0618 96.3313 18.7507C95.6154 18.4396 95.055 17.9986 94.6502 17.4276C94.2454 16.8523 94.0217 16.1705 93.979 15.3821H95.9606C95.9989 15.8551 96.1523 16.2493 96.4208 16.5646C96.6935 16.8757 97.0408 17.108 97.4627 17.2614C97.8888 17.4105 98.3555 17.4851 98.8626 17.4851C99.4208 17.4851 99.9173 17.3977 100.352 17.223C100.791 17.044 101.136 16.7969 101.387 16.4815C101.639 16.1619 101.765 15.7891 101.765 15.3629C101.765 14.9751 101.654 14.6577 101.432 14.4105C101.215 14.1634 100.919 13.9588 100.544 13.7969C100.173 13.6349 99.7532 13.4922 99.2844 13.3686L97.7376 12.9467C96.6893 12.6612 95.8583 12.2415 95.2447 11.6875C94.6353 11.1335 94.3306 10.4006 94.3306 9.48864C94.3306 8.73437 94.5352 8.07599 94.9442 7.51349C95.3533 6.95099 95.9073 6.5142 96.6062 6.20312C97.305 5.88778 98.0934 5.73011 98.9712 5.73011C99.8576 5.73011 100.64 5.88565 101.317 6.19673C101.999 6.50781 102.536 6.93608 102.928 7.48153C103.32 8.02273 103.525 8.64489 103.542 9.34801H101.637ZM112.556 22.6818V17.4723H112.441C112.326 17.6811 112.16 17.9197 111.942 18.1882C111.729 18.4567 111.435 18.6911 111.06 18.8913C110.685 19.0916 110.199 19.1918 109.603 19.1918C108.81 19.1918 108.103 18.9893 107.481 18.5845C106.863 18.1754 106.377 17.5937 106.023 16.8395C105.674 16.081 105.499 15.1712 105.499 14.1101C105.499 13.049 105.676 12.1413 106.03 11.3871C106.388 10.6328 106.878 10.0554 107.5 9.65483C108.122 9.25426 108.827 9.05398 109.616 9.05398C110.225 9.05398 110.715 9.15625 111.086 9.3608C111.461 9.56108 111.751 9.79545 111.955 10.0639C112.164 10.3324 112.326 10.5689 112.441 10.7734H112.601V9.18182H114.467V22.6818H112.556ZM110.025 17.5618C110.574 17.5618 111.039 17.4169 111.418 17.1271C111.802 16.8331 112.091 16.4261 112.287 15.9062C112.488 15.3864 112.588 14.7812 112.588 14.0909C112.588 13.4091 112.49 12.8125 112.294 12.3011C112.098 11.7898 111.81 11.3913 111.431 11.1058C111.052 10.8203 110.583 10.6776 110.025 10.6776C109.449 10.6776 108.97 10.8267 108.586 11.125C108.203 11.4233 107.913 11.8303 107.717 12.3459C107.525 12.8615 107.43 13.4432 107.43 14.0909C107.43 14.7472 107.528 15.3374 107.724 15.8615C107.92 16.3857 108.209 16.8011 108.593 17.108C108.981 17.4105 109.458 17.5618 110.025 17.5618ZM123.256 14.9283V9.18182H125.174V19H123.295V17.2997H123.192C122.966 17.8239 122.604 18.2607 122.106 18.6101C121.611 18.9553 120.996 19.1278 120.258 19.1278C119.628 19.1278 119.069 18.9893 118.584 18.7124C118.102 18.4311 117.723 18.0156 117.446 17.4659C117.173 16.9162 117.037 16.2365 117.037 15.4268V9.18182H118.948V15.1967C118.948 15.8658 119.133 16.3984 119.504 16.7947C119.875 17.1911 120.356 17.3892 120.949 17.3892C121.307 17.3892 121.662 17.2997 122.016 17.1207C122.374 16.9418 122.67 16.6712 122.905 16.3089C123.143 15.9467 123.26 15.4865 123.256 14.9283ZM127.742 19V9.18182H129.653V19H127.742ZM128.707 7.6669C128.375 7.6669 128.089 7.55611 127.85 7.33452C127.616 7.10866 127.499 6.8402 127.499 6.52912C127.499 6.21378 127.616 5.94531 127.85 5.72372C128.089 5.49787 128.375 5.38494 128.707 5.38494C129.039 5.38494 129.323 5.49787 129.557 5.72372C129.796 5.94531 129.915 6.21378 129.915 6.52912C129.915 6.8402 129.796 7.10866 129.557 7.33452C129.323 7.55611 129.039 7.6669 128.707 7.6669ZM132.224 19V9.18182H134.072V10.7415H134.174C134.353 10.2131 134.668 9.79758 135.12 9.49503C135.576 9.18821 136.091 9.0348 136.667 9.0348C136.786 9.0348 136.927 9.03906 137.089 9.04759C137.255 9.05611 137.385 9.06676 137.479 9.07955V10.9077C137.402 10.8864 137.265 10.8629 137.069 10.8374C136.873 10.8075 136.677 10.7926 136.481 10.7926C136.03 10.7926 135.627 10.8885 135.273 11.0803C134.924 11.2678 134.647 11.5298 134.442 11.8665C134.238 12.1989 134.135 12.5781 134.135 13.0043V19H132.224ZM142.917 19.1982C141.966 19.1982 141.148 18.983 140.462 18.5526C139.78 18.1179 139.256 17.5192 138.89 16.7564C138.523 15.9936 138.34 15.12 138.34 14.1357C138.34 13.1385 138.527 12.2585 138.902 11.4957C139.277 10.7287 139.806 10.13 140.488 9.69957C141.169 9.26918 141.973 9.05398 142.897 9.05398C143.643 9.05398 144.308 9.19247 144.892 9.46946C145.475 9.74219 145.946 10.1257 146.304 10.62C146.667 11.1143 146.882 11.6918 146.95 12.3523H145.09C144.988 11.892 144.753 11.4957 144.387 11.1634C144.025 10.831 143.539 10.6648 142.929 10.6648C142.397 10.6648 141.93 10.8054 141.529 11.0866C141.133 11.3636 140.824 11.7599 140.603 12.2756C140.381 12.7869 140.27 13.392 140.27 14.0909C140.27 14.8068 140.379 15.4247 140.596 15.9446C140.814 16.4645 141.12 16.8672 141.517 17.1527C141.917 17.4382 142.388 17.581 142.929 17.581C143.292 17.581 143.62 17.5149 143.914 17.3828C144.212 17.2464 144.461 17.0526 144.662 16.8011C144.866 16.5497 145.009 16.2472 145.09 15.8935H146.95C146.882 16.5284 146.675 17.0952 146.33 17.5938C145.985 18.0923 145.522 18.4844 144.943 18.7699C144.368 19.0554 143.692 19.1982 142.917 19.1982ZM150.905 5.90909V19H148.994V5.90909H150.905ZM157.708 19.1982C156.74 19.1982 155.907 18.9915 155.208 18.5781C154.514 18.1605 153.977 17.5746 153.598 16.8203C153.223 16.0618 153.035 15.1733 153.035 14.1548C153.035 13.1491 153.223 12.2628 153.598 11.4957C153.977 10.7287 154.505 10.13 155.183 9.69957C155.865 9.26918 156.662 9.05398 157.574 9.05398C158.127 9.05398 158.664 9.1456 159.184 9.32884C159.704 9.51207 160.171 9.79972 160.584 10.1918C160.998 10.5838 161.324 11.093 161.562 11.7195C161.801 12.3416 161.92 13.098 161.92 13.9886V14.6662H154.115V13.2344H160.047C160.047 12.7315 159.945 12.2862 159.74 11.8984C159.536 11.5064 159.248 11.1974 158.877 10.9716C158.511 10.7457 158.081 10.6328 157.586 10.6328C157.049 10.6328 156.581 10.7649 156.18 11.0291C155.784 11.2891 155.477 11.63 155.26 12.0518C155.047 12.4695 154.94 12.9233 154.94 13.4134V14.532C154.94 15.1882 155.055 15.7464 155.285 16.2067C155.52 16.6669 155.846 17.0185 156.263 17.2614C156.681 17.5 157.169 17.6193 157.727 17.6193C158.089 17.6193 158.419 17.5682 158.718 17.4659C159.016 17.3594 159.274 17.2017 159.491 16.9929C159.708 16.7841 159.875 16.5263 159.99 16.2195L161.799 16.5455C161.654 17.0781 161.394 17.5447 161.019 17.9453C160.648 18.3416 160.181 18.6506 159.619 18.8722C159.061 19.0895 158.424 19.1982 157.708 19.1982Z" fill="white"/>
</svg>
