<svg width="33" height="33" viewBox="0 0 33 33" fill="none" xmlns="http://www.w3.org/2000/svg">
<mask id="mask0_2_56" style="mask-type:alpha" maskUnits="userSpaceOnUse" x="0" y="0" width="33" height="33">
<path d="M0.469482 13.1419C0.469482 8.66153 0.469482 6.42132 1.34143 4.71003C2.10842 3.20473 3.33226 1.98088 4.83756 1.2139C6.54885 0.341949 8.78906 0.341949 13.2695 0.341949H19.6695C24.1499 0.341949 26.3901 0.341949 28.1014 1.2139C29.6067 1.98088 30.8305 3.20473 31.5975 4.71003C32.4695 6.42132 32.4695 8.66153 32.4695 13.1419V19.542C32.4695 24.0224 32.4695 26.2626 31.5975 27.9739C30.8305 29.4792 29.6067 30.703 28.1014 31.47C26.3901 32.3419 24.1499 32.3419 19.6695 32.3419H13.2695C8.78906 32.3419 6.54885 32.3419 4.83756 31.47C3.33226 30.703 2.10842 29.4792 1.34143 27.9739C0.469482 26.2626 0.469482 24.0224 0.469482 19.542V13.1419Z" fill="#D9D9D9"/>
</mask>
<g mask="url(#mask0_2_56)">
<path d="M0.469482 0.341949H16.4695V11.0086H0.469482V0.341949Z" fill="#F04F2B"/>
<path d="M0.469482 11.0086H16.4695V21.6753H0.469482V11.0086Z" fill="#A160FC"/>
<path d="M0.469482 21.6753H16.4695V32.342H0.469482V21.6753Z" fill="#24CE85"/>
<path d="M16.4695 21.6753H32.4695V32.342H16.4695V21.6753Z" fill="#24CE85"/>
<path d="M16.4695 11.0086H32.4695V21.6753H16.4695V11.0086Z" fill="#2CBDFB"/>
<path d="M16.4695 0.341949H32.4695V11.0086H16.4695V0.341949Z" fill="#FD7366"/>
</g>
</svg>
