<svg width="160" height="24" viewBox="0 0 160 24" fill="none" xmlns="http://www.w3.org/2000/svg">
<path d="M0 8.192C0 5.32453 0 3.8908 0.558047 2.79557C1.04892 1.83218 1.83218 1.04892 2.79557 0.558047C3.8908 0 5.32453 0 8.192 0H12H15.808C18.6755 0 20.1092 0 21.2044 0.558047C22.1678 1.04892 22.9511 1.83218 23.442 2.79557C24 3.8908 24 5.32453 24 8.192V15.808C24 18.6755 24 20.1092 23.442 21.2044C22.9511 22.1678 22.1678 22.9511 21.2044 23.442C20.1092 24 18.6755 24 15.808 24H12H8.192C5.32453 24 3.8908 24 2.79557 23.442C1.83218 22.9511 1.04892 22.1678 0.558047 21.2044C0 20.1092 0 18.6755 0 15.808V8.192Z" fill="#C4C4C4"/>
<path d="M23.442 21.2045C24 20.1093 24 18.6756 24 15.8081H12V24.0001H15.808C18.6755 24.0001 20.1092 24.0001 21.2044 23.4421C22.1678 22.9512 22.9511 22.1679 23.442 21.2045Z" fill="#0ACF83"/>
<path d="M2.79557 23.4421C3.8908 24.0001 5.32453 24.0001 8.192 24.0001H12V15.8081H0C0 18.6756 0 20.1093 0.558047 21.2045C1.04892 22.1679 1.83218 22.9512 2.79557 23.4421Z" fill="#0ACF83"/>
<path d="M24 15.8079V8.19189H12V15.8079H24Z" fill="#1ABCFE"/>
<path d="M0 8.19189V15.8079H12V8.19189H0Z" fill="#A259FF"/>
<path d="M21.2044 0.558047C20.1092 0 18.6755 0 15.808 0H12V8.192H24C24 5.32453 24 3.8908 23.442 2.79557C22.9511 1.83218 22.1678 1.04892 21.2044 0.558047Z" fill="#FF7262"/>
<path d="M2.79557 0.558047C3.8908 0 5.32453 0 8.192 0H12V8.192H0C0 5.32453 0 3.8908 0.558047 2.79557C1.04892 1.83218 1.83218 1.04892 2.79557 0.558047Z" fill="#F24E1E"/>
<path d="M36 19.3879V5.92409H44.0865V7.67281H37.9676V11.7751H43.507V13.5172H37.9676V19.3879H36ZM46.3533 19.3879V9.29005H48.2571V19.3879H46.3533ZM47.3147 7.73197C46.9836 7.73197 46.6992 7.61803 46.4615 7.39012C46.2281 7.15783 46.1113 6.88172 46.1113 6.56178C46.1113 6.23746 46.2281 5.96134 46.4615 5.73344C46.6992 5.50116 46.9836 5.38501 47.3147 5.38501C47.6459 5.38501 47.9281 5.50116 48.1615 5.73344C48.3993 5.96134 48.5182 6.23746 48.5182 6.56178C48.5182 6.88172 48.3993 7.15783 48.1615 7.39012C47.9281 7.61803 47.6459 7.73197 47.3147 7.73197ZM54.9189 23.385C54.142 23.385 53.4735 23.2798 52.9132 23.0694C52.357 22.859 51.9029 22.5807 51.5506 22.2345C51.1982 21.8883 50.9351 21.5092 50.761 21.0971L52.3974 20.4003C52.512 20.5932 52.6648 20.7969 52.8559 21.0117C53.0511 21.2308 53.3143 21.4171 53.6454 21.5706C53.9807 21.7239 54.4116 21.8006 54.938 21.8006C55.6596 21.8006 56.256 21.6187 56.7272 21.2549C57.1983 20.8956 57.4339 20.3215 57.4339 19.5325V17.5471H57.313C57.1983 17.7619 57.0328 18.0008 56.8163 18.2638C56.604 18.5266 56.3112 18.7546 55.9376 18.9474C55.5641 19.1402 55.0781 19.2367 54.4795 19.2367C53.707 19.2367 53.0108 19.0505 52.391 18.6779C51.7755 18.301 51.2874 17.7465 50.9266 17.0147C50.57 16.2784 50.3917 15.3733 50.3917 14.2996C50.3917 13.2257 50.5679 12.3053 50.9202 11.5384C51.2767 10.7715 51.7649 10.1841 52.3846 9.77653C53.0044 9.36455 53.707 9.15856 54.4922 9.15856C55.0993 9.15856 55.5896 9.26375 55.9631 9.47412C56.3367 9.68011 56.6274 9.92116 56.8354 10.1973C57.0476 10.4734 57.2111 10.7166 57.3257 10.927H57.4658V9.29005H59.3314V19.6114C59.3314 20.4792 59.1361 21.1915 58.7456 21.748C58.355 22.3046 57.8266 22.7166 57.1602 22.9839C56.498 23.2513 55.7509 23.385 54.9189 23.385ZM54.8998 17.6064C55.4473 17.6064 55.91 17.4748 56.2879 17.2118C56.6699 16.9445 56.9586 16.5633 57.1538 16.068C57.3533 15.5683 57.453 14.97 57.453 14.2732C57.453 13.5939 57.3554 12.9957 57.1602 12.4785C56.9649 11.9613 56.6784 11.5581 56.3005 11.2688C55.9228 10.9752 55.4558 10.8284 54.8998 10.8284C54.3267 10.8284 53.8491 10.9818 53.4671 11.2886C53.0851 11.591 52.7964 12.003 52.6012 12.5245C52.4101 13.0461 52.3146 13.629 52.3146 14.2732C52.3146 14.9351 52.4122 15.5158 52.6076 16.0154C52.8028 16.515 53.0915 16.905 53.4735 17.1856C53.8598 17.4661 54.3352 17.6064 54.8998 17.6064ZM61.8847 19.3879V9.29005H63.7121V10.9335H63.8331C64.0369 10.3769 64.3701 9.94307 64.8328 9.63189C65.2955 9.31634 65.8494 9.15856 66.4946 9.15856C67.1484 9.15856 67.6959 9.31634 68.1374 9.63189C68.5831 9.94745 68.9121 10.3814 69.1243 10.9335H69.2262C69.4597 10.3945 69.8311 9.96499 70.3405 9.64505C70.8499 9.32073 71.4568 9.15856 72.1615 9.15856C73.0487 9.15856 73.7724 9.44564 74.3328 10.0198C74.8974 10.5939 75.1797 11.4595 75.1797 12.6166V19.3879H73.2758V12.8007C73.2758 12.1169 73.0954 11.6217 72.7346 11.3149C72.3738 11.0081 71.9429 10.8547 71.442 10.8547C70.8223 10.8547 70.3405 11.0519 69.9966 11.4463C69.6528 11.8365 69.4809 12.3383 69.4809 12.9518V19.3879H67.5835V12.6757C67.5835 12.1279 67.4179 11.6874 67.0868 11.3543C66.7557 11.0213 66.3249 10.8547 65.7942 10.8547C65.4334 10.8547 65.1002 10.9533 64.7945 11.1506C64.4932 11.3434 64.2491 11.6129 64.0624 11.9592C63.8798 12.3053 63.7885 12.7064 63.7885 13.1622V19.3879H61.8847ZM80.5775 19.6114C79.9578 19.6114 79.3975 19.4931 78.8965 19.2565C78.3957 19.0154 77.9987 18.6669 77.7059 18.2111C77.4172 17.7553 77.2728 17.1965 77.2728 16.5348C77.2728 15.965 77.379 15.496 77.5913 15.1279C77.8035 14.7597 78.0901 14.4682 78.4509 14.2535C78.8117 14.0387 79.2149 13.8766 79.6607 13.767C80.1063 13.6575 80.5606 13.5742 81.0233 13.5172C81.609 13.4471 82.0844 13.3901 82.4495 13.3463C82.8146 13.298 83.0799 13.2214 83.2454 13.1162C83.411 13.011 83.4938 12.84 83.4938 12.6034V12.5574C83.4938 11.9832 83.3367 11.5384 83.0226 11.2229C82.7127 10.9073 82.25 10.7495 81.6345 10.7495C80.9935 10.7495 80.4883 10.8963 80.1191 11.1899C79.754 11.4793 79.5015 11.8014 79.3613 12.1564L77.5722 11.7357C77.7843 11.1221 78.0942 10.6267 78.5018 10.2499C78.9136 9.86857 79.3868 9.59245 79.9216 9.42153C80.4566 9.24621 81.019 9.15856 81.609 9.15856C81.9996 9.15856 82.4135 9.20677 82.8507 9.30319C83.2921 9.39523 83.7038 9.56615 84.0859 9.81597C84.4722 10.0658 84.7884 10.423 85.0347 10.8876C85.2808 11.3477 85.4039 11.946 85.4039 12.6823V19.3879H83.5447V18.0074H83.4683C83.3451 18.2615 83.1606 18.5113 82.9143 18.7568C82.6681 19.0022 82.3519 19.2061 81.9656 19.3682C81.5793 19.5303 81.1166 19.6114 80.5775 19.6114ZM80.9914 18.0336C81.5177 18.0336 81.9677 17.9262 82.3412 17.7115C82.7191 17.4967 83.0056 17.2163 83.2008 16.87C83.4003 16.5194 83.5001 16.1447 83.5001 15.7458V14.4442C83.4322 14.5143 83.3006 14.58 83.1054 14.6413C82.9143 14.6983 82.6957 14.7487 82.4495 14.7926C82.2033 14.832 81.9635 14.8693 81.73 14.9043C81.4965 14.9351 81.3013 14.9613 81.1442 14.9832C80.7749 15.0314 80.4374 15.1125 80.1318 15.2264C79.8304 15.3404 79.5884 15.5048 79.4059 15.7195C79.2276 15.9299 79.1385 16.2104 79.1385 16.561C79.1385 17.0475 79.3125 17.4157 79.6607 17.6655C80.0087 17.9109 80.4523 18.0336 80.9914 18.0336ZM99.9503 9.46097C99.8826 8.83862 99.6017 8.35652 99.1096 8.01466C98.6175 7.66842 97.9974 7.49531 97.2503 7.49531C96.7155 7.49531 96.2528 7.58297 95.8622 7.75827C95.4717 7.92919 95.1682 8.16587 94.9517 8.46828C94.7395 8.7663 94.6334 9.10597 94.6334 9.48727C94.6334 9.80721 94.7055 10.0833 94.8498 10.3156C94.9984 10.5479 95.1915 10.743 95.4293 10.9007C95.6712 11.0541 95.9301 11.1834 96.2061 11.2886C96.482 11.3894 96.7473 11.4727 97.002 11.5384L98.2754 11.8803C98.6912 11.9855 99.1176 12.1279 99.5549 12.3076C99.9922 12.4873 100.398 12.7239 100.771 13.0176C101.145 13.3112 101.447 13.675 101.676 14.1089C101.909 14.5428 102.026 15.0621 102.026 15.6669C102.026 16.4296 101.835 17.1067 101.452 17.6983C101.075 18.29 100.525 18.7568 99.8039 19.0987C99.0867 19.4405 98.2181 19.6114 97.1994 19.6114C96.223 19.6114 95.3783 19.4515 94.6652 19.1315C93.952 18.8115 93.3938 18.358 92.9906 17.7707C92.5873 17.179 92.3645 16.4778 92.322 15.6669H94.2959C94.334 16.1534 94.4868 16.5588 94.7543 16.8831C95.026 17.2031 95.3719 17.442 95.7922 17.5998C96.2166 17.7531 96.6815 17.8298 97.1867 17.8298C97.7427 17.8298 98.2373 17.74 98.6703 17.5603C99.1076 17.3762 99.4513 17.122 99.7013 16.7977C99.9523 16.469 100.078 16.0855 100.078 15.6472C100.078 15.2484 99.9673 14.9219 99.7461 14.6677C99.53 14.4135 99.2351 14.2031 98.8616 14.0366C98.492 13.87 98.0738 13.7232 97.6068 13.5961L96.066 13.1622C95.0218 12.8685 94.194 12.4369 93.5828 11.8671C92.9757 11.2973 92.6722 10.5435 92.6722 9.60561C92.6722 8.82985 92.876 8.15272 93.2834 7.57419C93.6909 6.99567 94.2428 6.54644 94.939 6.2265C95.6351 5.90217 96.4204 5.74001 97.2948 5.74001C98.1778 5.74001 98.9572 5.89998 99.6316 6.21992C100.311 6.53987 100.846 6.98033 101.236 7.54132C101.627 8.09794 101.831 8.73782 101.848 9.46097H99.9503ZM110.827 23.1746V17.8167H110.713C110.598 18.0314 110.433 18.2768 110.215 18.553C110.003 18.8291 109.71 19.0702 109.337 19.2761C108.963 19.4821 108.479 19.5852 107.885 19.5852C107.096 19.5852 106.391 19.3769 105.772 18.9606C105.156 18.5398 104.672 17.9415 104.319 17.1659C103.972 16.3858 103.797 15.45 103.797 14.3587C103.797 13.2674 103.974 12.3338 104.326 11.5581C104.683 10.7824 105.171 10.1885 105.791 9.77653C106.41 9.36455 107.112 9.15856 107.898 9.15856C108.505 9.15856 108.993 9.26375 109.363 9.47412C109.736 9.68011 110.025 9.92116 110.228 10.1973C110.437 10.4734 110.598 10.7166 110.713 10.927H110.872V9.29005H112.731V23.1746H110.827ZM108.306 17.9087C108.853 17.9087 109.316 17.7597 109.693 17.4617C110.076 17.1593 110.364 16.7407 110.559 16.206C110.759 15.6714 110.859 15.0489 110.859 14.339C110.859 13.6377 110.761 13.0241 110.566 12.4982C110.371 11.9723 110.084 11.5625 109.706 11.2688C109.329 10.9752 108.862 10.8284 108.306 10.8284C107.732 10.8284 107.255 10.9818 106.872 11.2886C106.491 11.5954 106.202 12.014 106.007 12.5443C105.816 13.0745 105.721 13.6728 105.721 14.339C105.721 15.014 105.819 15.621 106.014 16.16C106.209 16.6991 106.497 17.1264 106.879 17.442C107.266 17.7531 107.741 17.9087 108.306 17.9087ZM121.486 15.2002V9.29005H123.396V19.3879H121.524V17.6392H121.422C121.197 18.1783 120.836 18.6275 120.34 18.9869C119.847 19.3419 119.234 19.5193 118.499 19.5193C117.872 19.5193 117.315 19.3769 116.832 19.0921C116.352 18.8028 115.974 18.3755 115.698 17.8101C115.426 17.2447 115.291 16.5457 115.291 15.7129V9.29005H117.194V15.4763C117.194 16.1644 117.379 16.7122 117.748 17.1198C118.118 17.5275 118.597 17.7312 119.188 17.7312C119.544 17.7312 119.898 17.6392 120.25 17.4551C120.607 17.2711 120.902 16.9928 121.136 16.6201C121.373 16.2476 121.49 15.7743 121.486 15.2002ZM125.954 19.3879V9.29005H127.858V19.3879H125.954ZM126.916 7.73197C126.585 7.73197 126.3 7.61803 126.062 7.39012C125.829 7.15783 125.712 6.88172 125.712 6.56178C125.712 6.23746 125.829 5.96134 126.062 5.73344C126.3 5.50116 126.585 5.38501 126.916 5.38501C127.246 5.38501 127.529 5.50116 127.762 5.73344C128 5.96134 128.119 6.23746 128.119 6.56178C128.119 6.88172 128 7.15783 127.762 7.39012C127.529 7.61803 127.246 7.73197 126.916 7.73197ZM130.419 19.3879V9.29005H132.26V10.8942H132.361C132.54 10.3507 132.853 9.92335 133.304 9.61218C133.758 9.29662 134.271 9.13884 134.845 9.13884C134.963 9.13884 135.104 9.14322 135.265 9.15199C135.43 9.16076 135.56 9.17171 135.654 9.18486V11.0651C135.577 11.0432 135.44 11.019 135.245 10.9928C135.05 10.962 134.855 10.9467 134.659 10.9467C134.21 10.9467 133.809 11.0453 133.456 11.2426C133.108 11.4354 132.833 11.7049 132.628 12.0512C132.425 12.3931 132.323 12.7831 132.323 13.2214V19.3879H130.419ZM141.071 19.5917C140.123 19.5917 139.308 19.3704 138.625 18.9278C137.946 18.4807 137.424 17.8649 137.059 17.0804C136.694 16.2959 136.511 15.3974 136.511 14.385C136.511 13.3594 136.698 12.4544 137.071 11.6698C137.445 10.881 137.972 10.2652 138.651 9.82254C139.329 9.37989 140.13 9.15856 141.051 9.15856C141.794 9.15856 142.456 9.301 143.038 9.58588C143.619 9.86638 144.088 10.2608 144.444 10.7692C144.806 11.2776 145.02 11.8715 145.088 12.5508H143.235C143.134 12.0774 142.899 11.6698 142.535 11.3281C142.174 10.9862 141.69 10.8153 141.083 10.8153C140.553 10.8153 140.087 10.9599 139.688 11.2491C139.293 11.534 138.986 11.9416 138.766 12.472C138.544 12.9978 138.434 13.6202 138.434 14.339C138.434 15.0753 138.542 15.7108 138.759 16.2455C138.976 16.7802 139.281 17.1943 139.676 17.488C140.074 17.7816 140.544 17.9285 141.083 17.9285C141.444 17.9285 141.771 17.8605 142.064 17.7246C142.361 17.5843 142.609 17.385 142.809 17.1264C143.012 16.8678 143.154 16.5567 143.235 16.1929H145.088C145.02 16.8459 144.814 17.4288 144.47 17.9416C144.127 18.4543 143.665 18.8576 143.089 19.1512C142.516 19.4449 141.843 19.5917 141.071 19.5917ZM149.028 5.92409V19.3879H147.124V5.92409H149.028ZM155.804 19.5917C154.84 19.5917 154.01 19.3792 153.314 18.954C152.623 18.5245 152.088 17.9219 151.71 17.1461C151.337 16.366 151.149 15.4522 151.149 14.4047C151.149 13.3703 151.337 12.4588 151.71 11.6698C152.088 10.881 152.614 10.2652 153.289 9.82254C153.968 9.37989 154.762 9.15856 155.671 9.15856C156.222 9.15856 156.757 9.25279 157.275 9.44125C157.793 9.6297 158.258 9.92555 158.669 10.3288C159.082 10.732 159.406 11.2557 159.643 11.9C159.881 12.5398 160 13.3178 160 14.2337V14.9307H152.225V13.4581H158.134C158.134 12.9408 158.033 12.4829 157.828 12.084C157.625 11.6808 157.338 11.363 156.969 11.1308C156.604 10.8985 156.176 10.7824 155.683 10.7824C155.148 10.7824 154.682 10.9182 154.282 11.1899C153.888 11.4574 153.582 11.808 153.366 12.2418C153.154 12.6714 153.047 13.1381 153.047 13.6422V14.7926C153.047 15.4675 153.162 16.0416 153.391 16.515C153.625 16.9883 153.95 17.35 154.365 17.5998C154.781 17.8452 155.267 17.9679 155.823 17.9679C156.184 17.9679 156.513 17.9153 156.81 17.8101C157.107 17.7006 157.364 17.5384 157.58 17.3236C157.797 17.1089 157.963 16.8437 158.077 16.5282L159.879 16.8635C159.735 17.4113 159.476 17.8911 159.102 18.3032C158.733 18.7107 158.268 19.0285 157.708 19.2565C157.152 19.48 156.518 19.5917 155.804 19.5917Z" fill="white"/>
</svg>
